<svg xmlns="http://www.w3.org/2000/svg" width="1200" height="675" viewBox="0 0 1200 675" role="img" aria-labelledby="title desc">
  <title id="title">DeepSeek V4 output-token price change</title><desc id="desc">A grouped bar chart showing official USD prices per million output tokens before, off-peak, and peak after the August 2026 pricing change.</desc>
  <rect width="1200" height="675" fill="#071522"/><text x="72" y="85" fill="#f8fafc" font-family="Arial, sans-serif" font-size="38" font-weight="700">DeepSeek V4: output-token pricing shifted to time-of-day tiers</text><text x="72" y="122" fill="#9fb3c8" font-family="Arial, sans-serif" font-size="22">USD per 1M output tokens · official rate card, effective August 2026</text>
  <line x1="145" y1="540" x2="1120" y2="540" stroke="#58718c" stroke-width="2"/><g font-family="Arial, sans-serif" font-size="19" fill="#9fb3c8"><text x="95" y="547">0</text><text x="82" y="440">1</text><text x="82" y="333">2</text><text x="82" y="226">3</text><text x="82" y="119">4</text></g><g stroke="#29445e" stroke-width="1"><line x1="145" y1="433" x2="1120" y2="433"/><line x1="145" y1="326" x2="1120" y2="326"/><line x1="145" y1="219" x2="1120" y2="219"/><line x1="145" y1="112" x2="1120" y2="112"/></g>
  <rect x="270" y="510" width="72" height="30" rx="5" fill="#4f8cff"/><rect x="356" y="469" width="72" height="71" rx="5" fill="#46c2a9"/><rect x="442" y="399" width="72" height="141" rx="5" fill="#f8b84e"/>
  <rect x="710" y="447" width="72" height="93" rx="5" fill="#4f8cff"/><rect x="796" y="328" width="72" height="212" rx="5" fill="#46c2a9"/><rect x="882" y="116" width="72" height="424" rx="5" fill="#f8b84e"/>
  <g font-family="Arial, sans-serif" font-size="22" font-weight="700" fill="#f8fafc"><text x="286" y="497">0.28</text><text x="372" y="456">0.66</text><text x="458" y="386">1.32</text><text x="724" y="434">0.87</text><text x="808" y="315">1.98</text><text x="894" y="103">3.96</text></g><g font-family="Arial, sans-serif" font-size="27" font-weight="700" fill="#f8fafc"><text x="300" y="590">V4-Flash</text><text x="760" y="590">V4-Pro</text></g>
  <g font-family="Arial, sans-serif" font-size="20" fill="#c6d5e4"><rect x="160" y="625" width="18" height="18" rx="3" fill="#4f8cff"/><text x="188" y="641">Previous flat rate</text><rect x="420" y="625" width="18" height="18" rx="3" fill="#46c2a9"/><text x="448" y="641">Off-peak rate</text><rect x="685" y="625" width="18" height="18" rx="3" fill="#f8b84e"/><text x="713" y="641">Peak rate</text></g>
</svg>
